P3
3 3
255
58
58
58
62
62
62
39
39
39
23
23
23
0
0
0
92
92
92
0
0
0
75
75
75
101
101
101
