P3
3 3
255
44
27
25
63
40
34
50
17
29
60
52
21
97
72
43
65
51
49
39
46
12
57
69
38
33
73
46
