P3
3 3
255
23
255
101
39
25
75
62
110
0
58
0
92
255
101
0
25
75
23
110
0
39
0
92
62
101
0
58
