P3
3 3
255
111
10
68
10
102
72
120
10
49
35
85
33
255
111
10
68
10
102
72
120
10
49
35
85
33
255
111
