P3
3 3
255
91
0
48
0
82
52
100
0
29
15
65
13
245
91
0
48
0
82
52
100
0
29
15
65
13
245
91
