P3
3 3
255
0
0
0
92
92
92
0
0
0
75
75
75
101
101
101
0
0
0
110
110
110
25
25
25
255
255
255
