P3
3 3
255
25
25
25
70
70
70
26
26
26
60
60
60
126
126
126
18
18
18
91
91
91
31
31
31
194
194
194
