P3
3 3
255
53
53
53
51
51
51
49
49
49
41
41
41
118
118
118
50
50
50
57
57
57
46
46
46
126
126
126
