P3
3 3
255
101
101
101
0
0
0
110
110
110
25
25
25
255
255
255
58
58
58
62
62
62
39
39
39
23
23
23
