P3
3 3
255
50
44
35
82
73
57
50
44
35
71
64
49
177
158
123
40
35
27
108
97
75
48
43
33
224
199
155
