P3
3 3
255
138
23
22
123
91
94
152
0
49
111
125
49
255
236
118
159
92
155
103
109
0
132
137
112
72
247
121
