P3
3 3
255
134
18
40
121
87
93
157
0
45
115
125
42
255
240
112
141
95
151
105
116
0
118
148
109
73
251
120
