P3
2 2
255
101
0
58
55
46
50
43
92
11
93
95
67
