P3
3 3
255
101
101
101
92
92
92
110
110
110
75
75
75
255
255
255
92
92
92
110
110
110
75
75
75
255
255
255
