P3
3 3
255
62
110
0
39
25
75
23
255
101
25
75
23
255
101
0
58
0
92
101
0
58
0
92
62
110
0
39
